<svg width="113" height="28" viewBox="0 0 113 28" fill="none" xmlns="http://www.w3.org/2000/svg">
<circle cx="99.55" cy="13" r="13" fill="#C32929"/>
<path fill-rule="evenodd" clip-rule="evenodd" d="M15.2216 1.4999H14.755V17.5299C14.755 18.7666 14.4283 19.7699 13.775 20.5399C13.1217 21.3099 12.13 21.6949 10.8 21.6949C9.49333 21.6949 8.51333 21.3099 7.86 20.5399C7.20667 19.7699 6.88 18.7666 6.88 17.5299V1.4999H0.965V17.9499C0.965 19.4899 1.21 20.8316 1.7 21.9749C2.21333 23.1182 2.91333 24.0632 3.8 24.8099C4.71 25.5332 5.76 26.0816 6.95 26.4549C8.14 26.8282 9.42333 27.0149 10.8 27.0149C12.1767 27.0149 13.46 26.8282 14.65 26.4549C15.8633 26.0816 16.9133 25.5332 17.8 24.8099C18.71 24.0632 19.41 23.1182 19.9 21.9749C20.4133 20.8316 20.67 19.4899 20.67 17.9499V6.94833L15.2216 1.4999ZM30.546 13.7499C30.546 12.3857 30.795 11.177 31.293 10.1241L26.9281 5.75918C26.2615 6.60535 25.7058 7.54225 25.261 8.5699C24.6077 10.1332 24.281 11.8599 24.281 13.7499C24.281 15.6399 24.596 17.3782 25.226 18.9649C25.8793 20.5516 26.7893 21.9282 27.956 23.0949C29.146 24.2616 30.546 25.1716 32.156 25.8249C33.766 26.4549 35.5393 26.7699 37.476 26.7699C39.3894 26.7699 41.151 26.4549 42.761 25.8249C43.7552 25.4215 44.6648 24.9202 45.49 24.321L41.2525 20.0835C41.1961 20.1197 41.1389 20.1552 41.081 20.1899C40.0543 20.8199 38.8527 21.1349 37.476 21.1349C36.076 21.1349 34.851 20.8199 33.801 20.1899C32.7743 19.5599 31.9693 18.6966 31.386 17.5999C30.826 16.4799 30.546 15.1966 30.546 13.7499ZM44.371 13.7499C44.371 14.9297 44.177 16.0008 43.7891 16.9633L48.3031 21.4773C48.8453 20.7083 49.2963 19.8708 49.656 18.9649C50.3094 17.3782 50.636 15.6399 50.636 13.7499C50.636 11.8599 50.3094 10.1332 49.656 8.5699C49.0027 7.00657 48.081 5.65324 46.891 4.5099C45.701 3.36657 44.301 2.49157 42.691 1.8849C41.1044 1.2549 39.366 0.939902 37.476 0.939902C35.6093 0.939902 33.871 1.2549 32.261 1.8849C31.4132 2.20436 30.6237 2.59823 29.8923 3.0665L34.0137 7.1879C35.0154 6.63923 36.1695 6.3649 37.476 6.3649C38.8993 6.3649 40.1244 6.6799 41.151 7.3099C42.1777 7.9399 42.971 8.8149 43.531 9.9349C44.091 11.0316 44.371 12.3032 44.371 13.7499ZM60.7261 13.5049L67.4111 23.7249L74.1311 13.5049L75.6011 25.9999H81.8311L77.8761 0.274902L67.4111 15.2199L56.9811 0.274902L53.0261 25.9999H59.2561L60.7261 13.5049Z" fill="#222222"/>
</svg>
