<svg width="12" height="11" viewBox="0 0 12 11" fill="none" xmlns="http://www.w3.org/2000/svg">
<path d="M6.25 2.80469C4.75 2.80469 3.55469 4.02344 3.55469 5.5C3.55469 7 4.75 8.19531 6.25 8.19531C7.72656 8.19531 8.94531 7 8.94531 5.5C8.94531 4.02344 7.72656 2.80469 6.25 2.80469ZM6.25 7.25781C5.28906 7.25781 4.49219 6.48438 4.49219 5.5C4.49219 4.53906 5.26562 3.76562 6.25 3.76562C7.21094 3.76562 7.98438 4.53906 7.98438 5.5C7.98438 6.48438 7.21094 7.25781 6.25 7.25781ZM9.67188 2.71094C9.67188 2.35938 9.39062 2.07812 9.03906 2.07812C8.6875 2.07812 8.40625 2.35938 8.40625 2.71094C8.40625 3.0625 8.6875 3.34375 9.03906 3.34375C9.39062 3.34375 9.67188 3.0625 9.67188 2.71094ZM11.4531 3.34375C11.4062 2.5 11.2188 1.75 10.6094 1.14062C10 0.53125 9.25 0.34375 8.40625 0.296875C7.53906 0.25 4.9375 0.25 4.07031 0.296875C3.22656 0.34375 2.5 0.53125 1.86719 1.14062C1.25781 1.75 1.07031 2.5 1.02344 3.34375C0.976562 4.21094 0.976562 6.8125 1.02344 7.67969C1.07031 8.52344 1.25781 9.25 1.86719 9.88281C2.5 10.4922 3.22656 10.6797 4.07031 10.7266C4.9375 10.7734 7.53906 10.7734 8.40625 10.7266C9.25 10.6797 10 10.4922 10.6094 9.88281C11.2188 9.25 11.4062 8.52344 11.4531 7.67969C11.5 6.8125 11.5 4.21094 11.4531 3.34375ZM10.3281 8.59375C10.1641 9.0625 9.78906 9.41406 9.34375 9.60156C8.64062 9.88281 7 9.8125 6.25 9.8125C5.47656 9.8125 3.83594 9.88281 3.15625 9.60156C2.6875 9.41406 2.33594 9.0625 2.14844 8.59375C1.86719 7.91406 1.9375 6.27344 1.9375 5.5C1.9375 4.75 1.86719 3.10938 2.14844 2.40625C2.33594 1.96094 2.6875 1.60938 3.15625 1.42188C3.83594 1.14062 5.47656 1.21094 6.25 1.21094C7 1.21094 8.64062 1.14062 9.34375 1.42188C9.78906 1.58594 10.1406 1.96094 10.3281 2.40625C10.6094 3.10938 10.5391 4.75 10.5391 5.5C10.5391 6.27344 10.6094 7.91406 10.3281 8.59375Z" fill="white"/>
</svg>
