<svg width="12" height="13" viewBox="0 0 12 13" fill="none" xmlns="http://www.w3.org/2000/svg">
<path d="M11.625 6.5C11.625 7.54688 11.3594 8.51562 10.8281 9.40625C10.3125 10.2969 9.60938 11 8.71875 11.5156C7.82812 12.0469 6.85938 12.3125 5.8125 12.3125C5.21875 12.3125 4.64844 12.2266 4.10156 12.0547C4.47656 11.4297 4.71094 10.9219 4.80469 10.5312L5.17969 9.14844C5.27344 9.33594 5.44531 9.49219 5.69531 9.61719C5.94531 9.74219 6.21875 9.80469 6.51562 9.80469C7.07812 9.80469 7.58594 9.64844 8.03906 9.33594C8.50781 9.00781 8.86719 8.57031 9.11719 8.02344C9.38281 7.47656 9.51562 6.88281 9.51562 6.24219C9.51562 5.58594 9.35938 5 9.04688 4.48438C8.73438 3.96875 8.30469 3.57031 7.75781 3.28906C7.21094 2.99219 6.60156 2.84375 5.92969 2.84375C5.13281 2.84375 4.42969 3.00781 3.82031 3.33594C3.27344 3.64844 2.84375 4.07812 2.53125 4.625C2.23438 5.15625 2.08594 5.73438 2.08594 6.35938C2.08594 6.8125 2.19531 7.26562 2.41406 7.71875C2.64844 8.15625 2.9375 8.45312 3.28125 8.60938C3.39062 8.65625 3.45312 8.63281 3.46875 8.53906L3.63281 7.88281C3.64844 7.82031 3.63281 7.76562 3.58594 7.71875C3.46094 7.5625 3.35938 7.36719 3.28125 7.13281C3.20312 6.88281 3.16406 6.63281 3.16406 6.38281C3.16406 5.94531 3.26562 5.53906 3.46875 5.16406C3.6875 4.77344 3.99219 4.46094 4.38281 4.22656C4.78906 3.97656 5.25781 3.85156 5.78906 3.85156C6.50781 3.85156 7.09375 4.07812 7.54688 4.53125C8 4.96875 8.22656 5.53125 8.22656 6.21875C8.22656 7 8.04688 7.64062 7.6875 8.14062C7.34375 8.64062 6.91406 8.89062 6.39844 8.89062C6.10156 8.89062 5.86719 8.78906 5.69531 8.58594C5.52344 8.36719 5.46875 8.11719 5.53125 7.83594C5.5625 7.66406 5.63281 7.41406 5.74219 7.08594C5.91406 6.50781 6 6.10938 6 5.89062C6 5.65625 5.9375 5.46875 5.8125 5.32812C5.6875 5.17188 5.50781 5.09375 5.27344 5.09375C4.97656 5.09375 4.72656 5.22656 4.52344 5.49219C4.32031 5.75781 4.21875 6.09375 4.21875 6.5C4.21875 6.84375 4.27344 7.13281 4.38281 7.36719L3.72656 10.25C3.63281 10.6406 3.625 11.1953 3.70312 11.9141C2.59375 11.4922 1.69531 10.7891 1.00781 9.80469C0.335938 8.82031 0 7.71875 0 6.5C0 5.45312 0.257812 4.48438 0.773438 3.59375C1.30469 2.70312 2.01562 2 2.90625 1.48438C3.79688 0.953125 4.76562 0.6875 5.8125 0.6875C6.85938 0.6875 7.82812 0.953125 8.71875 1.48438C9.60938 2 10.3125 2.70312 10.8281 3.59375C11.3594 4.48438 11.625 5.45312 11.625 6.5Z" fill="white"/>
</svg>
